<svg width="20" height="21" viewBox="0 0 20 21" fill="none" xmlns="http://www.w3.org/2000/svg">
<path fill-rule="evenodd" clip-rule="evenodd" d="M9.82562 -8.58994e-07C9.53611 -8.84304e-07 9.25846 0.115006 9.05375 0.31972C8.84903 0.524434 8.73403 0.802087 8.73403 1.0916L8.73402 16.838L1.8657 9.96748C1.66073 9.76251 1.38272 9.64735 1.09285 9.64735C0.802972 9.64735 0.52497 9.76251 0.319997 9.96748C0.115024 10.1725 -0.000126908 10.4505 -0.000126933 10.7403C-0.000126959 11.0302 0.115023 11.3082 0.319997 11.5132L9.05277 20.246C9.15417 20.3476 9.27463 20.4283 9.40725 20.4833C9.53987 20.5383 9.68204 20.5666 9.82562 20.5666C9.9692 20.5666 10.1114 20.5383 10.244 20.4833C10.3766 20.4283 10.4971 20.3476 10.5985 20.246L19.3312 11.5132C19.4327 11.4117 19.5132 11.2912 19.5682 11.1586C19.6231 11.026 19.6514 10.8839 19.6514 10.7403C19.6514 10.4505 19.5362 10.1725 19.3312 9.96748C19.1263 9.76251 18.8483 9.64735 18.5584 9.64735C18.2685 9.64735 17.9905 9.76251 17.7855 9.96748L10.9172 16.838L10.9172 1.0916C10.9172 0.802087 10.8022 0.524434 10.5975 0.31972C10.3928 0.115007 10.1151 -8.33684e-07 9.82562 -8.58994e-07Z" fill="white"/>
</svg>
