<svg width="100" height="100" viewBox="0 0 100 100" fill="none" xmlns="http://www.w3.org/2000/svg">
<g clip-path="url(#clip0_99_27)">
<circle cx="49.5" cy="37.5" r="20.5" fill="#D9D9D9"/>
<path d="M47.7815 55.36C53.2945 55.995 58.4685 54.311 62.4195 50.597C66.4315 46.826 68.2365 42.683 68.2365 37.243C68.2365 31.735 66.4135 27.61 62.2815 23.765C60.4555 22.065 58.0545 20.67 55.4375 19.787C53.2975 19.064 48.5545 18.884 46.0105 19.429C43.1775 20.035 39.8075 21.794 37.6745 23.778C33.6845 27.49 31.7735 31.853 31.7735 37.243C31.7735 40.474 32.2455 42.498 33.6885 45.449C34.7385 47.596 35.1325 48.131 37.0945 50.082C38.8025 51.781 39.7395 52.507 41.1685 53.241C43.5235 54.449 45.5745 55.105 47.7815 55.36ZM48.8175 99.574C48.4295 99.338 46.6905 97.648 44.9525 95.818C31.6395 81.798 22.3445 68.161 17.2995 55.241C15.7815 51.354 15.2195 49.391 14.6245 45.911C12.8015 35.241 14.9845 24.817 20.8965 15.951C23.1465 12.576 27.7125 8.00096 30.9715 5.85296C42.8625 -1.98204 57.1915 -1.94904 69.1375 5.93996C72.2375 7.98796 76.8485 12.642 79.0435 15.94C83.0615 21.979 85.2035 28.177 85.8535 35.655C86.3845 41.757 85.4705 47.715 82.9915 54.349C78.1655 67.251 69.3935 80.129 54.2855 96.493C50.9125 100.146 50.3145 100.484 48.8175 99.574Z" fill="black"/>
</g>
<defs>
<clipPath id="clip0_99_27">
<rect width="100" height="100" fill="white"/>
</clipPath>
</defs>
</svg>
