<svg width="39" height="38" viewBox="0 0 39 38" fill="none" xmlns="http://www.w3.org/2000/svg">
<path d="M16.4067 23.7947L24.5293 19.0995L16.4067 14.4043V23.7947ZM34.4987 11.5403C34.7022 12.2759 34.843 13.2618 34.9369 14.5139C35.0465 15.7659 35.0934 16.8458 35.0934 17.7848L35.1873 19.0995C35.1873 22.527 34.9369 25.0467 34.4987 26.6587C34.1074 28.0673 33.1997 28.975 31.7912 29.3663C31.0556 29.5697 29.7096 29.7106 27.6438 29.8045C25.6092 29.914 23.7468 29.961 22.0252 29.961L19.5368 30.0549C12.9792 30.0549 8.89441 29.8045 7.2824 29.3663C5.87385 28.975 4.96612 28.0673 4.57485 26.6587C4.3714 25.9231 4.23054 24.9371 4.13664 23.6851C4.02709 22.4331 3.98013 21.3532 3.98013 20.4141L3.88623 19.0995C3.88623 15.672 4.13664 13.1523 4.57485 11.5403C4.96612 10.1317 5.87385 9.22399 7.2824 8.83273C8.01798 8.62927 9.36392 8.48842 11.4298 8.39451C13.4644 8.28496 15.3268 8.23801 17.0483 8.23801L19.5368 8.1441C26.0944 8.1441 30.1792 8.39451 31.7912 8.83273C33.1997 9.22399 34.1074 10.1317 34.4987 11.5403Z" fill="white"/>
</svg>
