<svg width="49" height="49" viewBox="0 0 49 49" fill="none" xmlns="http://www.w3.org/2000/svg">
<path d="M20.7706 22.1999V16.2054L30.7614 24.198L20.7706 32.1907V26.1962H2.78711V22.1999H20.7706ZM5.70044 30.1925H9.94454C11.3394 33.6275 13.8843 36.4712 17.1442 38.237C20.404 40.0029 24.1761 40.5812 27.8152 39.8731C31.4544 39.165 34.7344 37.2145 37.0943 34.3552C39.4542 31.4959 40.7472 27.9054 40.7523 24.198C40.7543 20.4868 39.465 16.8904 37.1054 14.0258C34.7458 11.1612 31.463 9.2069 27.8201 8.49807C24.1771 7.78923 20.401 8.37004 17.1395 10.1409C13.878 11.9117 11.3342 14.7623 9.94454 18.2035H5.70044C8.2461 10.097 15.8192 4.21637 24.7669 4.21637C35.8028 4.21637 44.7486 13.1622 44.7486 24.198C44.7486 35.2339 35.8028 44.1797 24.7669 44.1797C15.8192 44.1797 8.2461 38.2991 5.70044 30.1925Z" fill="white"/>
</svg>
