<svg width="42" height="42" viewBox="0 0 42 42" fill="none" xmlns="http://www.w3.org/2000/svg">
<g clip-path="url(#clip0_146_90)">
<path d="M39.9258 7.24838C39.6343 6.9834 39.2934 6.77846 38.9227 6.64526C38.5519 6.51205 38.1586 6.45319 37.7651 6.47204C37.3716 6.49089 36.9857 6.58709 36.6294 6.75512C36.2731 6.92316 35.9534 7.15975 35.6885 7.45137L14.9181 30.3107L8.05055 21.5073C7.80826 21.1967 7.50715 20.9369 7.16444 20.7426C6.82172 20.5484 6.44411 20.4236 6.05315 20.3753C5.26358 20.2777 4.46759 20.4978 3.84031 20.9872C3.21302 21.4765 2.80582 22.195 2.70828 22.9846C2.61074 23.7742 2.83085 24.5701 3.32019 25.1974L12.3375 36.7557C12.3375 36.7557 12.5995 37.0681 12.7256 37.183C13.0171 37.4481 13.3581 37.6532 13.7289 37.7865C14.0997 37.9198 14.4932 37.9787 14.8868 37.9599C15.2804 37.941 15.6664 37.8448 16.0228 37.6767C16.3792 37.5086 16.699 37.2719 16.9639 36.9801L40.1288 11.4856C40.3938 11.1941 40.5987 10.8533 40.7319 10.4825C40.8651 10.1118 40.924 9.71844 40.9051 9.32495C40.8863 8.93146 40.7901 8.54554 40.622 8.18924C40.454 7.83293 40.2174 7.51322 39.9258 7.24838Z" fill="#31373D"/>
</g>
<defs>
<clipPath id="clip0_146_90">
<rect width="36" height="36" fill="white" transform="translate(6.14014 0.331604) rotate(9.28496)"/>
</clipPath>
</defs>
</svg>
